<svg xmlns="http://www.w3.org/2000/svg" width="13" height="13" viewBox="0 0 13 13" fill="none">
  <path d="M12.7142 7.20668C13.105 6.81588 13.105 6.18123 12.7142 5.79043L7.71201 0.788216C7.32121 0.397418 6.68655 0.397418 6.29575 0.788216C5.90495 1.17901 5.90495 1.81367 6.29575 2.20447L10.5914 6.50012L6.29888 10.7958C5.90808 11.1866 5.90808 11.8212 6.29888 12.212C6.68968 12.6028 7.32433 12.6028 7.71513 12.212L12.7173 7.20981L12.7142 7.20668ZM1.70935 12.2089L6.71156 7.20668C7.10236 6.81588 7.10236 6.18123 6.71156 5.79043L1.70935 0.788216C1.31855 0.397418 0.683896 0.397418 0.293098 0.788216C-0.0976995 1.17901 -0.0976995 1.81367 0.293098 2.20447L4.58875 6.50012L0.296225 10.7958C-0.0945731 11.1866 -0.0945731 11.8212 0.296225 12.212C0.687023 12.6028 1.32168 12.6028 1.71248 12.212L1.70935 12.2089Z" fill="#171C8F"/>
</svg>