<svg xmlns="http://www.w3.org/2000/svg" width="17" height="16" viewBox="0 0 17 16" fill="none">
    <g clip-path="url(#clip0_4651_10750)">
        <path
            d="M5.70801 14C5.96645 14.5943 6.39283 15.1001 6.93478 15.4554C7.47673 15.8107 8.11065 16 8.75867 16C9.4067 16 10.0406 15.8107 10.5826 15.4554C11.1245 15.1001 11.5509 14.5943 11.8093 14H5.70801Z"
            fill="#171C8F" />
        <path
            d="M15.6867 8.36644L14.5293 4.55111C14.1587 3.21667 13.3529 2.04429 12.2399 1.22011C11.1269 0.395927 9.77045 -0.0328134 8.38594 0.00196019C7.00143 0.0367338 5.66821 0.533029 4.59797 1.41205C3.52774 2.29106 2.78182 3.50242 2.47866 4.85378L1.57999 8.54511C1.46055 9.03561 1.45408 9.54684 1.56107 10.0402C1.66806 10.5336 1.88571 10.9962 2.19761 11.3932C2.50951 11.7901 2.90749 12.1111 3.36154 12.3317C3.81558 12.5524 4.31382 12.6671 4.81866 12.6671H12.4967C13.0172 12.6671 13.5304 12.5453 13.9953 12.3113C14.4603 12.0773 14.8639 11.7376 15.174 11.3196C15.4841 10.9016 15.692 10.4167 15.781 9.90389C15.87 9.39107 15.8377 8.86453 15.6867 8.36644Z"
            fill="#171C8F" />
    </g>
    <defs>
        <clipPath id="clip0_4651_10750">
            <rect width="16" height="16" fill="white" transform="translate(0.758789)" />
        </clipPath>
    </defs>
</svg>