<svg xmlns="http://www.w3.org/2000/svg" width="17" height="16" viewBox="0 0 17 16" fill="none">
    <g clip-path="url(#clip0_2488_64149)">
        <path
            d="M7.50004 11.3332C7.32473 11.3333 7.15112 11.2989 6.98913 11.2319C6.82715 11.1648 6.67998 11.0665 6.55604 10.9425L4.03337 8.47653C3.90695 8.35277 3.83487 8.18385 3.833 8.00694C3.83112 7.83003 3.8996 7.65962 4.02337 7.5332C4.14714 7.40678 4.31606 7.3347 4.49296 7.33283C4.66987 7.33095 4.84028 7.39943 4.9667 7.5232L7.49537 9.99453L12.0327 5.52787C12.1607 5.41528 12.3269 5.35598 12.4972 5.36214C12.6675 5.3683 12.829 5.43946 12.9485 5.56099C13.068 5.68252 13.1364 5.8452 13.1396 6.0156C13.1429 6.186 13.0808 6.35118 12.966 6.4772L8.43737 10.9485C8.3141 11.0711 8.16786 11.1682 8.00702 11.2342C7.84618 11.3002 7.67389 11.3339 7.50004 11.3332ZM16.5 12.6665V8.22653C16.5249 6.1715 15.7714 4.18313 14.3909 2.66065C13.0104 1.13816 11.105 0.194291 9.05737 0.0185323C7.91447 -0.0614292 6.76773 0.105025 5.69473 0.506634C4.62173 0.908243 3.64751 1.53564 2.83798 2.34636C2.02845 3.15709 1.4025 4.13224 1.00249 5.20584C0.602468 6.27943 0.437713 7.42642 0.519369 8.5692C0.814036 12.8052 4.5547 15.9999 9.22204 15.9999H13.1667C14.0504 15.9988 14.8977 15.6473 15.5226 15.0224C16.1475 14.3975 16.499 13.5503 16.5 12.6665ZM8.9667 1.3492C10.6777 1.50056 12.268 2.29381 13.4181 3.56957C14.5682 4.84533 15.1929 6.50908 15.1667 8.22653V12.6665C15.1667 13.197 14.956 13.7057 14.5809 14.0807C14.2058 14.4558 13.6971 14.6665 13.1667 14.6665H9.22204C5.19937 14.6665 2.10004 12.0665 1.85004 8.4772C1.7844 7.56292 1.90802 6.64493 2.21316 5.78058C2.5183 4.91623 2.9984 4.12409 3.62348 3.45365C4.24856 2.78321 5.00519 2.24887 5.84608 1.88403C6.68698 1.51919 7.59407 1.33167 8.5107 1.3332C8.66204 1.3332 8.8147 1.3392 8.9667 1.3492Z"
            fill="#55B059" />
    </g>
    <defs>
        <clipPath id="clip0_2488_64149">
            <rect width="16" height="16" fill="white" transform="translate(0.5)" />
        </clipPath>
    </defs>
</svg>