<svg xmlns="http://www.w3.org/2000/svg" width="17" height="16" viewBox="0 0 17 16" fill="none">
    <g clip-path="url(#clip0_4307_15259)">
        <path
            d="M7.08516 12.0813C7.27089 12.2672 7.49143 12.4146 7.73416 12.5152C7.9769 12.6158 8.23707 12.6676 8.49983 12.6676C8.76258 12.6676 9.02275 12.6158 9.26549 12.5152C9.50822 12.4146 9.72876 12.2672 9.91449 12.0813L12.0552 9.94067C12.1699 9.81373 12.2315 9.64752 12.2271 9.47644C12.2227 9.30536 12.1527 9.14253 12.0316 9.02165C11.9104 8.90077 11.7474 8.8311 11.5764 8.82707C11.4053 8.82304 11.2392 8.88496 11.1125 9L9.16182 10.9513L9.16649 0.666667C9.16649 0.489856 9.09625 0.320286 8.97123 0.195262C8.84621 0.0702379 8.67664 0 8.49983 0V0C8.32301 0 8.15344 0.0702379 8.02842 0.195262C7.9034 0.320286 7.83316 0.489856 7.83316 0.666667L7.82716 10.9387L5.88716 9C5.76206 8.875 5.59244 8.8048 5.41559 8.80486C5.23874 8.80493 5.06916 8.87524 4.94416 9.00033C4.81915 9.12543 4.74896 9.29506 4.74902 9.4719C4.74909 9.64875 4.8194 9.81833 4.94449 9.94333L7.08516 12.0813Z"
            fill="#171C8F" />
        <path
            d="M15.8333 10.6665C15.6565 10.6665 15.487 10.7367 15.3619 10.8618C15.2369 10.9868 15.1667 11.1564 15.1667 11.3332V13.9998C15.1667 14.1766 15.0964 14.3462 14.9714 14.4712C14.8464 14.5963 14.6768 14.6665 14.5 14.6665H2.5C2.32319 14.6665 2.15362 14.5963 2.0286 14.4712C1.90357 14.3462 1.83333 14.1766 1.83333 13.9998V11.3332C1.83333 11.1564 1.7631 10.9868 1.63807 10.8618C1.51305 10.7367 1.34348 10.6665 1.16667 10.6665C0.989856 10.6665 0.820286 10.7367 0.695262 10.8618C0.570238 10.9868 0.5 11.1564 0.5 11.3332L0.5 13.9998C0.5 14.5303 0.710714 15.039 1.08579 15.414C1.46086 15.7891 1.96957 15.9998 2.5 15.9998H14.5C15.0304 15.9998 15.5391 15.7891 15.9142 15.414C16.2893 15.039 16.5 14.5303 16.5 13.9998V11.3332C16.5 11.1564 16.4298 10.9868 16.3047 10.8618C16.1797 10.7367 16.0101 10.6665 15.8333 10.6665Z"
            fill="#171C8F" />
    </g>
    <defs>
        <clipPath id="clip0_4307_15259">
            <rect width="16" height="16" fill="white" transform="translate(0.5)" />
        </clipPath>
    </defs>
</svg>