<svg xmlns="http://www.w3.org/2000/svg" width="16" height="16" viewBox="0 0 16 16" fill="none">
    <g clip-path="url(#clip0_4307_15065)">
        <path
            d="M9.00004 4.3332C9.00004 4.59842 8.89468 4.85277 8.70714 5.04031C8.51961 5.22784 8.26525 5.3332 8.00004 5.3332C7.73482 5.3332 7.48047 5.22784 7.29293 5.04031C7.10539 4.85277 7.00004 4.59842 7.00004 4.3332C7.00004 4.06798 7.10539 3.81363 7.29293 3.62609C7.48047 3.43856 7.73482 3.3332 8.00004 3.3332C8.26525 3.3332 8.51961 3.43856 8.70714 3.62609C8.89468 3.81363 9.00004 4.06798 9.00004 4.3332ZM16 12.6665V8.22653C16.0249 6.1715 15.2714 4.18313 13.8909 2.66065C12.5104 1.13816 10.605 0.194291 8.55737 0.0185323C7.41447 -0.0614292 6.26773 0.105025 5.19473 0.506634C4.12173 0.908243 3.14751 1.53564 2.33798 2.34636C1.52845 3.15709 0.902503 4.13224 0.502485 5.20584C0.102468 6.27943 -0.0622869 7.42642 0.0193688 8.5692C0.314036 12.8052 4.0547 15.9999 8.72204 15.9999H12.6667C13.5504 15.9988 14.3977 15.6473 15.0226 15.0224C15.6475 14.3975 15.999 13.5503 16 12.6665ZM8.4667 1.3492C10.1777 1.50056 11.768 2.29381 12.9181 3.56957C14.0682 4.84533 14.6929 6.50908 14.6667 8.22653V12.6665C14.6667 13.197 14.456 13.7057 14.0809 14.0807C13.7058 14.4558 13.1971 14.6665 12.6667 14.6665H8.72204C4.69937 14.6665 1.60004 12.0665 1.35004 8.4772C1.2844 7.56292 1.40802 6.64493 1.71316 5.78058C2.0183 4.91623 2.4984 4.12409 3.12348 3.45365C3.74856 2.78321 4.50519 2.24887 5.34608 1.88403C6.18698 1.51919 7.09407 1.33167 8.0107 1.3332C8.16204 1.3332 8.3147 1.3392 8.4667 1.3492ZM9.33337 11.9999V7.99987C9.33337 7.64624 9.19289 7.30711 8.94285 7.05706C8.6928 6.80701 8.35366 6.66653 8.00004 6.66653H7.33337C7.15656 6.66653 6.98699 6.73677 6.86197 6.8618C6.73694 6.98682 6.6667 7.15639 6.6667 7.3332C6.6667 7.51001 6.73694 7.67958 6.86197 7.8046C6.98699 7.92963 7.15656 7.99987 7.33337 7.99987H8.00004V11.9999C8.00004 12.1767 8.07027 12.3462 8.1953 12.4713C8.32032 12.5963 8.48989 12.6665 8.6667 12.6665C8.84351 12.6665 9.01308 12.5963 9.13811 12.4713C9.26313 12.3462 9.33337 12.1767 9.33337 11.9999Z"
            fill="#FF0000" />
    </g>
    <defs>
        <clipPath id="clip0_4307_15065">
            <rect width="16" height="16" fill="white" />
        </clipPath>
    </defs>
</svg>