<svg xmlns="http://www.w3.org/2000/svg" width="17" height="16" viewBox="0 0 17 16" fill="none">
    <path
        d="M8.75879 9.99512C7.65423 9.99512 6.75879 10.8906 6.75879 11.9951V15.9951H10.7588V11.9951C10.7588 10.8906 9.86335 9.99512 8.75879 9.99512Z"
        fill="#B8BABD" />
    <path
        d="M12.0921 11.9949V15.9949H14.7588C15.8634 15.9949 16.7588 15.0995 16.7588 13.9949V7.91426C16.7589 7.56792 16.6244 7.23511 16.3834 6.98626L10.7181 0.861577C9.71851 -0.219986 8.03138 -0.286392 6.94982 0.713233C6.89845 0.760733 6.84895 0.810202 6.80148 0.861577L1.14613 6.98426C0.897945 7.23414 0.758695 7.57208 0.758789 7.92426V13.9949C0.758789 15.0995 1.65423 15.9949 2.75879 15.9949H5.42545V11.9949C5.43791 10.177 6.90563 8.69255 8.67773 8.6498C10.5091 8.60561 12.0782 10.1154 12.0921 11.9949Z"
        fill="#B8BABD" />
</svg>