<svg xmlns="http://www.w3.org/2000/svg" width="16" height="16" viewBox="0 0 16 16" fill="none">
  <rect width="16" height="16" rx="8" fill="#171C8F"/>
  <path d="M7.0669 8.47335C7.00441 8.41138 6.95482 8.33764 6.92097 8.2564C6.88713 8.17516 6.8697 8.08803 6.8697 8.00002C6.8697 7.91201 6.88713 7.82487 6.92097 7.74364C6.95482 7.6624 7.00441 7.58866 7.0669 7.52669L10.1269 4.47335C10.1894 4.41138 10.239 4.33764 10.2728 4.2564C10.3067 4.17516 10.3241 4.08803 10.3241 4.00002C10.3241 3.91201 10.3067 3.82487 10.2728 3.74364C10.239 3.6624 10.1894 3.58866 10.1269 3.52669C10.002 3.40252 9.83302 3.33282 9.6569 3.33282C9.48078 3.33282 9.31181 3.40252 9.1869 3.52669L6.1269 6.58669C5.75236 6.96169 5.54199 7.47002 5.54199 8.00002C5.54199 8.53002 5.75236 9.03835 6.1269 9.41335L9.1869 12.4734C9.31107 12.5965 9.47867 12.6659 9.65357 12.6667C9.7413 12.6672 9.82828 12.6504 9.9095 12.6172C9.99073 12.584 10.0646 12.5351 10.1269 12.4734C10.1894 12.4114 10.239 12.3376 10.2728 12.2564C10.3067 12.1752 10.3241 12.088 10.3241 12C10.3241 11.912 10.3067 11.8249 10.2728 11.7436C10.239 11.6624 10.1894 11.5887 10.1269 11.5267L7.0669 8.47335Z" fill="white"/>
</svg>