<svg xmlns="http://www.w3.org/2000/svg" width="13" height="14" viewBox="0 0 13 14" fill="none">
  <path d="M12.7906 5.04278L8.45722 0.709444C8.39067 0.64448 8.31219 0.592981 8.22611 0.557778C8.13657 0.52139 8.04108 0.501804 7.94444 0.5H2.16667C1.59203 0.5 1.04093 0.728273 0.634602 1.1346C0.228273 1.54093 0 2.09203 0 2.66667V11.3333C0 11.908 0.228273 12.4591 0.634602 12.8654C1.04093 13.2717 1.59203 13.5 2.16667 13.5H10.8333C11.408 13.5 11.9591 13.2717 12.3654 12.8654C12.7717 12.4591 13 11.908 13 11.3333V5.55556C13.0005 5.46051 12.9823 5.36628 12.9464 5.27829C12.9104 5.1903 12.8575 5.11026 12.7906 5.04278ZM4.33333 1.94444H7.22222V3.38889H4.33333V1.94444ZM8.66667 12.0556H4.33333V9.88889C4.33333 9.69734 4.40942 9.51364 4.54487 9.3782C4.68031 9.24276 4.86401 9.16667 5.05556 9.16667H7.94444C8.13599 9.16667 8.31969 9.24276 8.45513 9.3782C8.59058 9.51364 8.66667 9.69734 8.66667 9.88889V12.0556ZM11.5556 11.3333C11.5556 11.5249 11.4795 11.7086 11.344 11.844C11.2086 11.9795 11.0249 12.0556 10.8333 12.0556H10.1111V9.88889C10.1111 9.31425 9.88284 8.76315 9.47651 8.35682C9.07018 7.95049 8.51908 7.72222 7.94444 7.72222H5.05556C4.48092 7.72222 3.92982 7.95049 3.52349 8.35682C3.11716 8.76315 2.88889 9.31425 2.88889 9.88889V12.0556H2.16667C1.97512 12.0556 1.79142 11.9795 1.65598 11.844C1.52054 11.7086 1.44444 11.5249 1.44444 11.3333V2.66667C1.44444 2.47512 1.52054 2.29142 1.65598 2.15598C1.79142 2.02054 1.97512 1.94444 2.16667 1.94444H2.88889V4.11111C2.88889 4.30266 2.96498 4.48636 3.10042 4.6218C3.23587 4.75724 3.41957 4.83333 3.61111 4.83333H7.94444C8.13599 4.83333 8.31969 4.75724 8.45513 4.6218C8.59058 4.48636 8.66667 4.30266 8.66667 4.11111V2.96278L11.5556 5.85167V11.3333Z" fill="#171C8F"/>
</svg>