<svg width="17" height="16" viewBox="0 0 17 16" fill="none" xmlns="http://www.w3.org/2000/svg">

<path d="M15.826 14.8765L11.8467 10.8972C12.9311 9.5709 13.4643 7.87856 13.3359 6.17021C13.2075 4.46186 12.4275 2.86819 11.1571 1.71885C9.88664 0.56951 8.22307 -0.0475688 6.51043 -0.00474754C4.7978 0.0380737 3.16714 0.737519 1.95575 1.94891C0.744355 3.16031 0.0449096 4.79096 0.0020884 6.5036C-0.0407328 8.21623 0.576346 9.87981 1.72569 11.1502C2.87503 12.4206 4.46869 13.2007 6.17705 13.3291C7.8854 13.4574 9.57774 12.9243 10.904 11.8398L14.8833 15.8192C15.0091 15.9406 15.1775 16.0078 15.3523 16.0063C15.5271 16.0048 15.6943 15.9347 15.8179 15.811C15.9415 15.6874 16.0116 15.5202 16.0131 15.3454C16.0146 15.1706 15.9474 15.0022 15.826 14.8765ZM6.68801 12.0145C5.63317 12.0145 4.60203 11.7017 3.72496 11.1157C2.8479 10.5296 2.16432 9.69669 1.76065 8.72215C1.35698 7.74761 1.25136 6.67525 1.45715 5.64069C1.66294 4.60612 2.17089 3.65581 2.91677 2.90993C3.66265 2.16405 4.61296 1.6561 5.64752 1.45031C6.68209 1.24453 7.75444 1.35014 8.72898 1.75381C9.70352 2.15748 10.5365 2.84107 11.1225 3.71813C11.7085 4.59519 12.0213 5.62634 12.0213 6.68117C12.0198 8.09517 11.4573 9.4508 10.4575 10.4507C9.45764 11.4505 8.10201 12.0129 6.68801 12.0145Z" fill="#9598A1"/>

</svg>

